# xmcd
#
# Track frame offsets: 
#        150
#        25652
#        52470
#        63684
#        78842
#        93933
#        112318
#        128306
#        143879
#        159872
#        177870
#        195777
#        207915
#        219531
#        235362
#        250677
#        263662
#        279435
#        295321
#        314524
#        329137
#        343622
#
# Disc length: 4786 seconds
#
# Revision: 1
# Processed by: cddbd v1.5.2PL0 Copyright (c) Steve Scherf et al.
# Submitted via: ExactAudioCopy v1.0b3
#
DISCID=4812b016
DTITLE=O.S.T.R. - Ja Tu Tylko Sprzątam
DYEAR=2008
DGENRE=Rap
TTITLE0=Introgliceryna
TTITLE1=Zamach na Ostrego
TTITLE2=Rap droższy od pieniędzy
TTITLE3=Co by się nie działo
TTITLE4=śśśśśś
TTITLE5=Dla tych kilku rzeczy
TTITLE6=Jak nie Ty, to kto? feat. Brother J
TTITLE7=Wojna o tlen
TTITLE8=Ty sobie możesz
TTITLE9=Keep It Classy feat. Sadat X and Cadillac Dale
TTITLE10=1980
TTITLE11=To ja mam flow
TTITLE12=Krótki kawałek o wolności słowa
TTITLE13=Jestem tylko dzieckiem feat. El Da Sensei
TTITLE14=Pij mleko
TTITLE15=Przeżyć to jeszcze raz
TTITLE16=Mówiłaś mi...
TTITLE17=To mamy w myśli
TTITLE18=Big Money On The Table feat. Reps and Cadillac Dale
TTITLE19=Wszystko co na górze
TTITLE20=Ja tu tylko sprzatam
TTITLE21=Jestem tylko dzieckiem feat. El Da Sensei (Returners Remix)
EXTD=
EXTT0=
EXTT1=
EXTT2=
EXTT3=
EXTT4=
EXTT5=
EXTT6=
EXTT7=
EXTT8=
EXTT9=
EXTT10=
EXTT11=
EXTT12=
EXTT13=
EXTT14=
EXTT15=
EXTT16=
EXTT17=
EXTT18=
EXTT19=
EXTT20=
EXTT21=
PLAYORDER=
